# Blender v2.81 (sub 16) OBJ File: ''
# www.blender.org
mtllib Target.mtl
o Cylinder.001
v -0.000000 -0.250000 -0.804280
v -0.128100 -0.091659 -0.906930
v 0.128100 -0.091659 -0.906930
v -0.000000 0.250000 -0.557067
v 0.128100 0.091659 -0.906930
v -0.128100 0.091659 -0.906930
v 0.764916 -0.250000 -0.248536
v 0.822956 -0.091659 -0.402087
v 0.902127 -0.091659 -0.158426
v 0.529802 0.250000 -0.172143
v 0.902127 0.091659 -0.158426
v 0.822956 0.091659 -0.402087
v 0.472744 -0.250000 0.650676
v 0.636715 -0.091659 0.658426
v 0.429445 -0.091659 0.809017
v 0.327436 0.250000 0.450676
v 0.429445 0.091659 0.809017
v 0.636715 0.091659 0.658426
v -0.472744 -0.250000 0.650676
v -0.429445 -0.091659 0.809017
v -0.636715 -0.091659 0.658426
v -0.327436 0.250000 0.450676
v -0.636715 0.091659 0.658426
v -0.429445 0.091659 0.809017
v -0.764916 -0.250000 -0.248536
v -0.902127 -0.091659 -0.158426
v -0.822956 -0.091659 -0.402087
v -0.529802 0.250000 -0.172143
v -0.822956 0.091659 -0.402087
v -0.902127 0.091659 -0.158426
v -0.000000 0.250000 -0.804280
v 0.764916 0.250000 -0.248536
v 0.472744 0.250000 0.650676
v -0.472744 0.250000 0.650676
v -0.764916 0.250000 -0.248536
v -0.000000 -0.250000 -0.557067
v 0.529802 -0.250000 -0.172143
v 0.327436 -0.250000 0.450676
v -0.327436 -0.250000 0.450676
v -0.529802 -0.250000 -0.172143
v 0.000000 -0.250000 -3.000000
v 2.121320 -0.250000 -2.121320
v 3.000000 -0.250000 0.000000
v 2.121320 -0.250000 2.121320
v -0.000000 -0.250000 3.000000
v -2.121321 -0.250000 2.121320
v -3.000000 -0.250000 -0.000000
v -2.121321 -0.250000 -2.121320
v -0.000000 0.250000 -2.531826
v 0.000000 0.000000 -3.000000
v 1.790271 0.250000 -1.790271
v 2.121320 0.000000 -2.121320
v 2.531826 0.250000 0.000000
v 3.000000 0.000000 0.000000
v 1.790271 0.250000 1.790271
v 2.121320 0.000000 2.121320
v -0.000000 0.250000 2.531826
v -0.000000 0.000000 3.000000
v -1.790271 0.250000 1.790271
v -2.121321 0.000000 2.121320
v -2.531826 0.250000 -0.000000
v -3.000000 0.000000 -0.000000
v -1.790272 0.250000 -1.790271
v -2.121321 0.000000 -2.121320
v -0.000000 0.250000 -2.729402
v 1.929978 0.250000 -1.929978
v 2.729402 0.250000 0.000000
v 1.929978 0.250000 1.929978
v -0.000000 0.250000 2.729402
v -1.929979 0.250000 1.929978
v -2.729402 0.250000 -0.000000
v -1.929979 0.250000 -1.929978
v -0.000000 -0.250000 -2.531826
v 1.790271 -0.250000 -1.790271
v 2.531826 -0.250000 0.000000
v 1.790271 -0.250000 1.790271
v -0.000000 -0.250000 2.531826
v -1.790271 -0.250000 1.790271
v -2.531826 -0.250000 -0.000000
v -1.790272 -0.250000 -1.790271
v -0.000000 -0.320989 -0.874708
v -0.159568 -0.125413 -0.995641
v 0.159568 -0.125413 -0.995641
v -0.000000 0.336581 -0.507035
v 0.159568 0.125413 -0.995641
v -0.159568 0.125413 -0.995641
v 0.831895 -0.320989 -0.270299
v 0.897601 -0.125413 -0.459428
v 0.996221 -0.125413 -0.155911
v 0.482217 0.336581 -0.156682
v 0.996221 0.125413 -0.155911
v 0.897601 0.125413 -0.459428
v 0.514139 -0.320989 0.707651
v 0.714318 -0.125413 0.711699
v 0.456130 -0.125413 0.899285
v 0.298028 0.336581 0.410200
v 0.456130 0.125413 0.899285
v 0.714318 0.125413 0.711699
v -0.514139 -0.320989 0.707651
v -0.456130 -0.125413 0.899285
v -0.714318 -0.125413 0.711699
v -0.298028 0.336581 0.410200
v -0.714318 0.125413 0.711699
v -0.456130 0.125413 0.899285
v -0.831895 -0.320989 -0.270299
v -0.996221 -0.125413 -0.155912
v -0.897601 -0.125413 -0.459429
v -0.482217 0.336581 -0.156682
v -0.897601 0.125413 -0.459429
v -0.996221 0.125413 -0.155912
v -0.000000 0.336685 -0.854135
v 0.812330 0.336685 -0.263942
v 0.502048 0.336685 0.691010
v -0.502048 0.336685 0.691010
v -0.812330 0.336685 -0.263942
v -0.000000 -0.250000 -0.457067
v 0.434697 -0.250000 -0.141243
v 0.268660 -0.250000 0.369775
v -0.268660 -0.250000 0.369775
v -0.434697 -0.250000 -0.141243
v 0.000000 -0.250000 -3.100000
v 2.192029 -0.250000 -2.192029
v 3.100000 -0.250000 0.000000
v 2.192029 -0.250000 2.192029
v -0.000000 -0.250000 3.100000
v -2.192029 -0.250000 2.192028
v -3.100000 -0.250000 -0.000000
v -2.192029 -0.250000 -2.192029
v -0.000000 0.330416 -2.472391
v 0.000000 0.036885 -3.092947
v 1.748244 0.330416 -1.748244
v 2.187045 0.036885 -2.187045
v 2.472391 0.330416 0.000000
v 3.092947 0.036885 0.000000
v 1.748244 0.330416 1.748244
v 2.187045 0.036885 2.187045
v -0.000000 0.330416 2.472391
v -0.000000 0.036885 3.092947
v -1.748244 0.330416 1.748244
v -2.187045 0.036885 2.187045
v -2.472391 0.330416 -0.000000
v -3.092947 0.036885 -0.000000
v -1.748245 0.330416 -1.748244
v -2.187045 0.036885 -2.187045
v -0.000000 0.339911 -2.773171
v 1.960927 0.339911 -1.960927
v 2.773171 0.339911 0.000000
v 1.960927 0.339911 1.960927
v -0.000000 0.339911 2.773171
v -1.960928 0.339911 1.960927
v -2.773172 0.339911 -0.000000
v -1.960928 0.339911 -1.960927
v -0.000000 -0.250000 -2.431826
v 1.719563 -0.250000 -1.719563
v 2.431826 -0.250000 0.000000
v 1.719563 -0.250000 1.719563
v -0.000000 -0.250000 2.431826
v -1.719563 -0.250000 1.719563
v -2.431826 -0.250000 -0.000000
v -1.719563 -0.250000 -1.719563
vt 0.173062 0.658341
vt 0.173062 0.841659
vt 0.026939 0.841659
vt 0.026939 0.658341
vt 0.573061 0.658341
vt 0.573061 0.841659
vt 0.426939 0.841659
vt 0.426939 0.658341
vt 0.373062 0.658341
vt 0.373062 0.841659
vt 0.226939 0.841659
vt 0.226939 0.658341
vt 0.773061 0.658341
vt 0.773061 0.841659
vt 0.626939 0.841659
vt 0.626939 0.658341
vt 0.250000 0.383696
vt 0.122848 0.291314
vt 0.122848 0.291314
vt 0.250000 0.383696
vt 0.973062 0.658341
vt 0.973061 0.841659
vt 0.826938 0.841659
vt 0.826939 0.658341
vt 0.750000 0.443027
vt 0.719256 0.467663
vt 0.780744 0.467663
vt 0.250000 0.443027
vt 0.280744 0.467663
vt 0.219256 0.467663
vt 0.933580 0.309649
vt 0.947510 0.346501
vt 0.966510 0.288022
vt 0.433580 0.309649
vt 0.466510 0.288022
vt 0.447509 0.346501
vt 0.863459 0.093838
vt 0.902812 0.091978
vt 0.853067 0.055836
vt 0.363459 0.093838
vt 0.353067 0.055836
vt 0.402812 0.091978
vt 0.636541 0.093838
vt 0.646933 0.055836
vt 0.597188 0.091978
vt 0.136541 0.093838
vt 0.097188 0.091978
vt 0.146933 0.055836
vt 0.566420 0.309649
vt 0.533490 0.288022
vt 0.552491 0.346501
vt 0.066420 0.309649
vt 0.052491 0.346501
vt 0.033490 0.288022
vt 0.819572 0.500000
vt 0.980428 0.500000
vt 0.980428 1.000000
vt 0.819572 1.000000
vt 0.000000 0.841659
vt 0.000000 0.658341
vt 0.619572 0.500000
vt 0.780428 0.500000
vt 0.780428 1.000000
vt 0.619572 1.000000
vt 0.419572 0.500000
vt 0.580428 0.500000
vt 0.580428 1.000000
vt 0.419572 1.000000
vt 0.219572 0.500000
vt 0.380428 0.500000
vt 0.380428 1.000000
vt 0.219572 1.000000
vt 0.019572 0.500000
vt 0.180428 0.500000
vt 0.180428 1.000000
vt 0.019572 1.000000
vt 0.377152 0.291314
vt 0.328584 0.141838
vt 0.171415 0.141838
vt 0.328584 0.141838
vt 0.171415 0.141838
vt 0.377152 0.291314
vt 0.125000 0.500000
vt 0.125000 0.750000
vt 0.000000 0.750000
vt 0.000000 0.500000
vt 0.750000 0.500000
vt 0.750000 0.750000
vt 0.625000 0.750000
vt 0.625000 0.500000
vt 0.500000 0.750000
vt 0.500000 0.500000
vt 0.375000 0.750000
vt 0.375000 0.500000
vt 0.250000 0.750000
vt 0.250000 0.500000
vt 1.000000 0.500000
vt 1.000000 0.750000
vt 0.875000 0.750000
vt 0.875000 0.500000
vt 0.994363 1.000000
vt 0.880637 1.000000
vt 0.869363 1.000000
vt 0.755637 1.000000
vt 0.744363 1.000000
vt 0.630638 1.000000
vt 0.619363 1.000000
vt 0.505637 1.000000
vt 0.494363 1.000000
vt 0.380637 1.000000
vt 0.369363 1.000000
vt 0.255637 1.000000
vt 0.244363 1.000000
vt 0.130637 1.000000
vt 0.119363 1.000000
vt 0.005637 1.000000
vt 0.047454 0.250000
vt 0.106778 0.106778
vt 0.106778 0.106778
vt 0.047454 0.250000
vt 0.250000 0.452546
vt 0.393222 0.393222
vt 0.404398 0.404398
vt 0.250000 0.468352
vt 0.452546 0.250000
vt 0.468352 0.250000
vt 0.393222 0.106778
vt 0.404398 0.095602
vt 0.250000 0.047454
vt 0.250000 0.031648
vt 0.095602 0.095602
vt 0.031648 0.250000
vt 0.106778 0.393222
vt 0.095602 0.404398
vt 0.393222 0.106778
vt 0.250000 0.047454
vt 0.393222 0.393222
vt 0.452546 0.250000
vt 0.106778 0.393222
vt 0.250000 0.452546
vt 0.819572 0.500000
vt 0.980428 0.500000
vt 0.619572 0.500000
vt 0.780428 0.500000
vt 0.419572 0.500000
vt 0.580428 0.500000
vt 0.219572 0.500000
vt 0.380428 0.500000
vt 0.019572 0.500000
vt 0.180428 0.500000
vt 0.250000 0.383696
vt 0.377152 0.291314
vt 0.328584 0.141838
vt 0.171415 0.141838
vt 0.122848 0.291314
vt 0.875000 0.500000
vt 1.000000 0.500000
vt 0.750000 0.500000
vt 0.625000 0.500000
vt 0.500000 0.500000
vt 0.375000 0.500000
vt 0.250000 0.500000
vt 0.125000 0.500000
vt 0.000000 0.500000
vt 0.250000 0.452546
vt 0.393222 0.393222
vt 0.452546 0.250000
vt 0.393222 0.106778
vt 0.250000 0.047454
vt 0.106778 0.106778
vt 0.047454 0.250000
vt 0.106778 0.393222
vt 0.173062 0.658341
vt 0.026939 0.658341
vt 0.026939 0.841659
vt 0.173062 0.841659
vt 0.573061 0.658341
vt 0.426939 0.658341
vt 0.426939 0.841659
vt 0.573061 0.841659
vt 0.373062 0.658341
vt 0.226939 0.658341
vt 0.226939 0.841659
vt 0.373062 0.841659
vt 0.773061 0.658341
vt 0.626939 0.658341
vt 0.626939 0.841659
vt 0.773061 0.841659
vt 0.250000 0.383696
vt 0.122848 0.291314
vt 0.973062 0.658341
vt 0.826939 0.658341
vt 0.826938 0.841659
vt 0.973061 0.841659
vt 0.750000 0.443027
vt 0.780744 0.467663
vt 0.719256 0.467663
vt 0.250000 0.443027
vt 0.219256 0.467663
vt 0.280744 0.467663
vt 0.933580 0.309649
vt 0.966510 0.288022
vt 0.947510 0.346501
vt 0.433580 0.309649
vt 0.447509 0.346501
vt 0.466510 0.288022
vt 0.863459 0.093838
vt 0.853067 0.055836
vt 0.902812 0.091978
vt 0.363459 0.093838
vt 0.402812 0.091978
vt 0.353067 0.055836
vt 0.636541 0.093838
vt 0.597188 0.091978
vt 0.646933 0.055836
vt 0.136541 0.093838
vt 0.146933 0.055836
vt 0.097188 0.091978
vt 0.566420 0.309649
vt 0.552491 0.346501
vt 0.533490 0.288022
vt 0.066420 0.309649
vt 0.033490 0.288022
vt 0.052491 0.346501
vt 0.819572 1.000000
vt 0.980428 1.000000
vt 0.000000 0.658341
vt 0.000000 0.841659
vt 0.619572 1.000000
vt 0.780428 1.000000
vt 0.419572 1.000000
vt 0.580428 1.000000
vt 0.219572 1.000000
vt 0.380428 1.000000
vt 0.019572 1.000000
vt 0.180428 1.000000
vt 0.377152 0.291314
vt 0.328584 0.141838
vt 0.171415 0.141838
vt 0.000000 0.750000
vt 0.125000 0.750000
vt 0.625000 0.750000
vt 0.750000 0.750000
vt 0.500000 0.750000
vt 0.375000 0.750000
vt 0.250000 0.750000
vt 0.875000 0.750000
vt 1.000000 0.750000
vt 0.880637 1.000000
vt 0.994363 1.000000
vt 0.755637 1.000000
vt 0.869363 1.000000
vt 0.630638 1.000000
vt 0.744363 1.000000
vt 0.505637 1.000000
vt 0.619363 1.000000
vt 0.380637 1.000000
vt 0.494363 1.000000
vt 0.255637 1.000000
vt 0.369363 1.000000
vt 0.130637 1.000000
vt 0.244363 1.000000
vt 0.005637 1.000000
vt 0.119363 1.000000
vt 0.047454 0.250000
vt 0.106778 0.106778
vt 0.250000 0.452546
vt 0.250000 0.468352
vt 0.404398 0.404398
vt 0.393222 0.393222
vt 0.468352 0.250000
vt 0.452546 0.250000
vt 0.404398 0.095602
vt 0.393222 0.106778
vt 0.250000 0.031648
vt 0.250000 0.047454
vt 0.095602 0.095602
vt 0.031648 0.250000
vt 0.095602 0.404398
vt 0.106778 0.393222
vn -0.5878 0.0000 -0.8090
vn -0.0000 0.0000 1.0000
vn -0.9511 0.0000 0.3090
vn 0.9511 0.0000 0.3090
vn 0.5878 0.0000 0.8090
vn 0.5878 0.0000 -0.8090
vn 0.0000 -0.5440 -0.8391
vn 0.0000 0.5440 -0.8391
vn 0.7980 -0.5440 -0.2593
vn 0.7980 0.5440 -0.2593
vn 0.4932 -0.5440 0.6788
vn 0.4932 0.5440 0.6788
vn -0.4932 -0.5440 0.6788
vn -0.4932 0.5440 0.6788
vn -0.7980 -0.5440 -0.2593
vn -0.7980 0.5440 -0.2593
vn 0.4156 -0.7071 -0.5721
vn 0.4156 0.7071 -0.5721
vn 0.0000 0.0000 -1.0000
vn 0.9511 0.0000 -0.3090
vn 0.6725 -0.7071 0.2185
vn 0.6725 0.7071 0.2185
vn -0.0000 -0.7071 0.7071
vn -0.0000 0.7071 0.7071
vn -0.5878 0.0000 0.8090
vn -0.6725 -0.7071 0.2185
vn -0.6725 0.7071 0.2185
vn -0.9511 0.0000 -0.3090
vn -0.4156 -0.7071 -0.5721
vn -0.4156 0.7071 -0.5721
vn 0.0000 1.0000 0.0000
vn -0.3827 0.0000 -0.9239
vn 0.9239 0.0000 0.3827
vn 0.3827 0.0000 0.9239
vn -0.3827 0.0000 0.9239
vn -0.9239 0.0000 0.3827
vn -0.9239 0.0000 -0.3827
vn 0.3827 0.0000 -0.9239
vn 0.9239 0.0000 -0.3827
vn 0.2706 0.7071 -0.6533
vn 0.6533 0.7071 -0.2706
vn 0.6533 0.7071 0.2706
vn 0.2706 0.7071 0.6533
vn -0.2706 0.7071 0.6533
vn -0.6533 0.7071 0.2706
vn -0.6533 0.7071 -0.2706
vn -0.2706 0.7071 -0.6533
vn 0.4584 0.6259 -0.6309
vn 0.7417 0.6259 0.2410
vn -0.0000 0.6259 0.7799
vn -0.7417 0.6259 0.2410
vn -0.4584 0.6259 -0.6309
vn -0.5864 -0.0688 -0.8071
vn 0.0000 0.5259 0.8505
vn 0.0000 -0.5565 0.8309
vn -0.8089 0.5259 0.2628
vn -0.7902 -0.5565 0.2567
vn -0.4999 0.5259 -0.6881
vn -0.4884 -0.5565 -0.6722
vn 0.4999 0.5259 -0.6881
vn 0.4884 -0.5565 -0.6722
vn 0.8089 0.5259 0.2628
vn 0.7902 -0.5565 0.2567
vn -0.4198 0.6999 0.5779
vn -0.4186 -0.7020 0.5761
vn -0.6793 0.6999 -0.2207
vn -0.6773 -0.7020 -0.2201
vn 0.0000 0.6999 -0.7143
vn 0.0000 -0.7020 -0.7121
vn 0.6793 0.6999 -0.2207
vn 0.6773 -0.7020 -0.2201
vn 0.4198 0.6999 0.5779
vn 0.4186 -0.7020 0.5761
vn 0.0002 -1.0000 -0.0003
vn 0.0004 -1.0000 0.0001
vn -0.0000 -1.0000 0.0004
vn -0.0004 -1.0000 0.0001
vn -0.0002 -1.0000 -0.0003
vn -0.0000 -0.0688 0.9976
vn 0.5864 -0.0688 -0.8071
vn -0.9488 -0.0687 0.3083
vn 0.9488 -0.0687 0.3083
vn 0.3826 -0.0227 0.9236
vn -0.9236 -0.0227 -0.3826
vn -0.3826 -0.0227 -0.9236
vn 0.3826 -0.0227 -0.9236
vn 0.9236 -0.0227 -0.3826
vn 0.9236 -0.0227 0.3826
vn -0.3826 -0.0227 0.9236
vn -0.9236 -0.0227 0.3826
vn -0.2740 -0.6981 0.6615
vn -0.6615 -0.6981 0.2740
vn -0.6615 -0.6981 -0.2740
vn -0.2740 -0.6981 -0.6615
vn 0.2740 -0.6981 -0.6615
vn 0.6615 -0.6981 -0.2740
vn 0.6615 -0.6981 0.2740
vn 0.2740 -0.6981 0.6615
vn -0.9220 -0.0644 0.3819
vn 0.0131 -0.9994 -0.0315
vn 0.0315 -0.9994 -0.0131
vn 0.0315 -0.9994 0.0131
vn 0.0131 -0.9994 0.0315
vn -0.0131 -0.9994 0.0315
vn -0.0315 -0.9994 0.0131
vn -0.0315 -0.9994 -0.0131
vn -0.0131 -0.9994 -0.0315
vn 0.3819 -0.0644 0.9220
vn 0.9220 -0.0644 -0.3819
vn -0.9220 -0.0644 -0.3819
vn -0.3819 -0.0644 0.9220
vn 0.9220 -0.0644 0.3819
vn 0.3819 -0.0644 -0.9220
vn -0.3819 -0.0644 -0.9220
g Cylinder.001_Cylinder.001_Material.001
usemtl Material.001
s off
f 27/1/1 29/2/1 6/3/1 2/4/1
f 15/5/2 17/6/2 24/7/2 20/8/2
f 21/9/3 23/10/3 30/11/3 26/12/3
f 9/13/4 11/14/4 18/15/4 14/16/4
f 4/17/5 28/18/5 40/19/5 36/20/5
f 3/21/6 5/22/6 12/23/6 8/24/6
f 1/25/7 2/26/7 3/27/7
f 31/28/8 5/29/8 6/30/8
f 7/31/9 8/32/9 9/33/9
f 32/34/10 11/35/10 12/36/10
f 13/37/11 14/38/11 15/39/11
f 33/40/12 17/41/12 18/42/12
f 19/43/13 20/44/13 21/45/13
f 34/46/14 23/47/14 24/48/14
f 25/49/15 26/50/15 27/51/15
f 35/52/16 29/53/16 30/54/16
f 3/21/17 8/24/17 7/55/17 1/56/17
f 12/23/18 5/22/18 31/57/18 32/58/18
f 2/4/19 6/3/19 5/59/19 3/60/19
f 11/14/20 9/13/20 8/24/20 12/23/20
f 9/13/21 14/16/21 13/61/21 7/62/21
f 18/15/22 11/14/22 32/63/22 33/64/22
f 17/6/5 15/5/5 14/16/5 18/15/5
f 15/5/23 20/8/23 19/65/23 13/66/23
f 24/7/24 17/6/24 33/67/24 34/68/24
f 23/10/25 21/9/25 20/8/25 24/7/25
f 21/9/26 26/12/26 25/69/26 19/70/26
f 30/11/27 23/10/27 34/71/27 35/72/27
f 29/2/28 27/1/28 26/12/28 30/11/28
f 27/1/29 2/4/29 1/73/29 25/74/29
f 6/3/30 29/2/30 35/75/30 31/76/30
f 4/17/31 10/77/31 32/34/31 31/28/31
f 10/77/31 16/78/31 33/40/31 32/34/31
f 16/78/31 22/79/31 34/46/31 33/40/31
f 22/79/31 28/18/31 35/52/31 34/46/31
f 28/18/31 4/17/31 31/28/31 35/52/31
f 22/79/19 16/78/19 38/80/19 39/81/19
f 10/77/25 4/17/25 36/20/25 37/82/25
f 28/18/20 22/79/20 39/81/20 40/19/20
f 16/78/28 10/77/28 37/82/28 38/80/28
f 48/83/32 64/84/32 50/85/32 41/86/32
f 43/87/33 54/88/33 56/89/33 44/90/33
f 44/90/34 56/89/34 58/91/34 45/92/34
f 45/92/35 58/91/35 60/93/35 46/94/35
f 46/94/36 60/93/36 62/95/36 47/96/36
f 47/96/37 62/95/37 64/84/37 48/83/37
f 41/97/38 50/98/38 52/99/38 42/100/38
f 42/100/39 52/99/39 54/88/39 43/87/39
f 52/99/40 50/98/40 65/101/40 66/102/40
f 54/88/41 52/99/41 66/103/41 67/104/41
f 56/89/42 54/88/42 67/105/42 68/106/42
f 58/91/43 56/89/43 68/107/43 69/108/43
f 60/93/44 58/91/44 69/109/44 70/110/44
f 62/95/45 60/93/45 70/111/45 71/112/45
f 64/84/46 62/95/46 71/113/46 72/114/46
f 50/85/47 64/84/47 72/115/47 65/116/47
f 61/117/39 59/118/39 78/119/39 79/120/39
f 49/121/31 51/122/31 66/123/31 65/124/31
f 51/122/31 53/125/31 67/126/31 66/123/31
f 53/125/31 55/127/31 68/128/31 67/126/31
f 55/127/31 57/129/31 69/130/31 68/128/31
f 57/129/31 59/118/31 70/131/31 69/130/31
f 59/118/31 61/117/31 71/132/31 70/131/31
f 61/117/31 63/133/31 72/134/31 71/132/31
f 63/133/31 49/121/31 65/124/31 72/134/31
f 57/129/32 55/127/32 76/135/32 77/136/32
f 53/125/36 51/122/36 74/137/36 75/138/36
f 63/133/33 61/117/33 79/120/33 80/139/33
f 59/118/38 57/129/38 77/136/38 78/119/38
f 55/127/37 53/125/37 75/138/37 76/135/37
f 51/122/35 49/121/35 73/140/35 74/137/35
f 49/121/34 63/133/34 80/139/34 73/140/34
f 1/56/48 7/55/48 87/141/48 81/142/48
f 7/62/49 13/61/49 93/143/49 87/144/49
f 13/66/50 19/65/50 99/145/50 93/146/50
f 19/70/51 25/69/51 105/147/51 99/148/51
f 25/74/52 1/73/52 81/149/52 105/150/52
f 37/82/31 36/20/31 116/151/31 117/152/31
f 38/80/31 37/82/31 117/152/31 118/153/31
f 39/81/31 38/80/31 118/153/31 119/154/31
f 40/19/31 39/81/31 119/154/31 120/155/31
f 36/20/31 40/19/31 120/155/31 116/151/31
f 41/97/31 42/100/31 122/156/31 121/157/31
f 42/100/31 43/87/31 123/158/31 122/156/31
f 43/87/31 44/90/31 124/159/31 123/158/31
f 44/90/31 45/92/31 125/160/31 124/159/31
f 45/92/31 46/94/31 126/161/31 125/160/31
f 46/94/31 47/96/31 127/162/31 126/161/31
f 47/96/31 48/83/31 128/163/31 127/162/31
f 48/83/31 41/86/31 121/164/31 128/163/31
f 74/137/31 73/140/31 153/165/31 154/166/31
f 75/138/31 74/137/31 154/166/31 155/167/31
f 76/135/31 75/138/31 155/167/31 156/168/31
f 77/136/31 76/135/31 156/168/31 157/169/31
f 78/119/31 77/136/31 157/169/31 158/170/31
f 79/120/31 78/119/31 158/170/31 159/171/31
f 80/139/31 79/120/31 159/171/31 160/172/31
f 73/140/31 80/139/31 160/172/31 153/165/31
g Cylinder.001_Cylinder.001_Material.002
usemtl Material.002
f 107/173/5 82/174/5 86/175/5 109/176/5
f 95/177/19 100/178/19 104/179/19 97/180/19
f 101/181/20 106/182/20 110/183/20 103/184/20
f 89/185/28 94/186/28 98/187/28 91/188/28
f 84/189/53 116/151/53 120/155/53 108/190/53
f 83/191/25 88/192/25 92/193/25 85/194/25
f 81/195/54 83/196/54 82/197/54
f 111/198/55 86/199/55 85/200/55
f 87/201/56 89/202/56 88/203/56
f 112/204/57 92/205/57 91/206/57
f 93/207/58 95/208/58 94/209/58
f 113/210/59 98/211/59 97/212/59
f 99/213/60 101/214/60 100/215/60
f 114/216/61 104/217/61 103/218/61
f 105/219/62 107/220/62 106/221/62
f 115/222/63 110/223/63 109/224/63
f 83/191/64 81/142/64 87/141/64 88/192/64
f 92/193/65 112/225/65 111/226/65 85/194/65
f 82/174/2 83/227/2 85/228/2 86/175/2
f 91/188/3 92/193/3 88/192/3 89/185/3
f 89/185/66 87/144/66 93/143/66 94/186/66
f 98/187/67 113/229/67 112/230/67 91/188/67
f 97/180/1 98/187/1 94/186/1 95/177/1
f 95/177/68 93/146/68 99/145/68 100/178/68
f 104/179/69 114/231/69 113/232/69 97/180/69
f 103/184/6 104/179/6 100/178/6 101/181/6
f 101/181/70 99/148/70 105/147/70 106/182/70
f 110/183/71 115/233/71 114/234/71 103/184/71
f 109/176/4 110/183/4 106/182/4 107/173/4
f 107/173/72 105/150/72 81/149/72 82/174/72
f 86/175/73 111/235/73 115/236/73 109/176/73
f 84/189/74 111/198/74 112/204/74 90/237/74
f 90/237/75 112/204/75 113/210/75 96/238/75
f 96/238/76 113/210/76 114/216/76 102/239/76
f 102/239/77 114/216/77 115/222/77 108/190/77
f 108/190/78 115/222/78 111/198/78 84/189/78
f 102/239/79 119/154/79 118/153/79 96/238/79
f 90/237/80 117/152/80 116/151/80 84/189/80
f 108/190/81 120/155/81 119/154/81 102/239/81
f 96/238/82 118/153/82 117/152/82 90/237/82
f 128/163/83 121/164/83 130/240/83 144/241/83
f 123/158/84 124/159/84 136/242/84 134/243/84
f 124/159/85 125/160/85 138/244/85 136/242/85
f 125/160/86 126/161/86 140/245/86 138/244/86
f 126/161/87 127/162/87 142/246/87 140/245/87
f 127/162/88 128/163/88 144/241/88 142/246/88
f 121/157/89 122/156/89 132/247/89 130/248/89
f 122/156/90 123/158/90 134/243/90 132/247/90
f 132/247/91 146/249/91 145/250/91 130/248/91
f 134/243/92 147/251/92 146/252/92 132/247/92
f 136/242/93 148/253/93 147/254/93 134/243/93
f 138/244/94 149/255/94 148/256/94 136/242/94
f 140/245/95 150/257/95 149/258/95 138/244/95
f 142/246/96 151/259/96 150/260/96 140/245/96
f 144/241/97 152/261/97 151/262/97 142/246/97
f 130/240/98 145/263/98 152/264/98 144/241/98
f 141/265/99 159/171/99 158/170/99 139/266/99
f 129/267/100 145/268/100 146/269/100 131/270/100
f 131/270/101 146/269/101 147/271/101 133/272/101
f 133/272/102 147/271/102 148/273/102 135/274/102
f 135/274/103 148/273/103 149/275/103 137/276/103
f 137/276/104 149/275/104 150/277/104 139/266/104
f 139/266/105 150/277/105 151/278/105 141/265/105
f 141/265/106 151/278/106 152/279/106 143/280/106
f 143/280/107 152/279/107 145/268/107 129/267/107
f 137/276/108 157/169/108 156/168/108 135/274/108
f 133/272/109 155/167/109 154/166/109 131/270/109
f 143/280/110 160/172/110 159/171/110 141/265/110
f 139/266/111 158/170/111 157/169/111 137/276/111
f 135/274/112 156/168/112 155/167/112 133/272/112
f 131/270/113 154/166/113 153/165/113 129/267/113
f 129/267/114 153/165/114 160/172/114 143/280/114
